<svg xmlns="http://www.w3.org/2000/svg" width="32" height="28.768" viewBox="0 0 32 28.768"><g transform="translate(-2 -3)"><path d="M34,4.6v14a.4.4,0,0,1-.4.4H2.4a.4.4,0,0,1-.4-.4V4.6A1.6,1.6,0,0,1,3.6,3H32.4A1.6,1.6,0,0,1,34,4.6Z" transform="translate(0 0)" fill="#fff"/><path d="M2,14.4v2.8a1.6,1.6,0,0,0,1.6,1.6h9.92a.4.4,0,0,1,.4.464l-.544,3.2a1.6,1.6,0,0,1-1.2,1.136.784.784,0,0,0-.592.8.832.832,0,0,0,.848.768H23.52a.832.832,0,0,0,.848-.768.784.784,0,0,0-.592-.8,1.6,1.6,0,0,1-1.2-1.136l-.544-3.2a.4.4,0,0,1,.448-.464H32.4A1.6,1.6,0,0,0,34,17.2V14.4a.4.4,0,0,0-.4-.4H2.4A.4.4,0,0,0,2,14.4Z" transform="translate(0 6.6)" fill="#fea621"/></g></svg>