<svg xmlns="http://www.w3.org/2000/svg" xmlns:xlink="http://www.w3.org/1999/xlink" width="232.823" height="68.985" viewBox="0 0 232.823 68.985"><defs><linearGradient id="a" x1="-0.087" x2="0.878" y2="0.845" gradientUnits="objectBoundingBox"><stop offset="0" stop-color="#e39b1b"/><stop offset="1" stop-color="#8b6115"/></linearGradient><linearGradient id="b" x1="0.908" y1="1.032" x2="-0.383" y2="0.36" gradientUnits="objectBoundingBox"><stop offset="0" stop-color="#00a0ff"/><stop offset="0.007" stop-color="#00a1ff"/><stop offset="0.26" stop-color="#00beff"/><stop offset="0.512" stop-color="#00d2ff"/><stop offset="0.76" stop-color="#00dfff"/><stop offset="1" stop-color="#00e3ff"/></linearGradient><linearGradient id="c" x1="1.077" y1="0.729" x2="-1.307" y2="0.729" gradientUnits="objectBoundingBox"><stop offset="0" stop-color="#ffe000"/><stop offset="0.409" stop-color="#ffbd00"/><stop offset="0.775" stop-color="orange"/><stop offset="1" stop-color="#ff9c00"/></linearGradient><linearGradient id="d" x1="0.864" y1="-0.023" x2="-0.499" y2="-1.789" gradientUnits="objectBoundingBox"><stop offset="0" stop-color="#ff3a44"/><stop offset="1" stop-color="#c31162"/></linearGradient><linearGradient id="e" x1="-0.186" y1="2.701" x2="0.423" y2="1.909" gradientUnits="objectBoundingBox"><stop offset="0" stop-color="#32a071"/><stop offset="0.069" stop-color="#2da771"/><stop offset="0.476" stop-color="#15cf74"/><stop offset="0.801" stop-color="#06e775"/><stop offset="1" stop-color="#00f076"/></linearGradient></defs><rect width="232.823" height="68.985" fill="url(#a)"/><rect width="7.665" height="68.985" rx="3.832" fill="#1f3c88" opacity="0"/><path d="M224.2,1.38a7.287,7.287,0,0,1,7.243,7.243V60.362A7.287,7.287,0,0,1,224.2,67.6H8.623A7.287,7.287,0,0,1,1.38,60.362V8.623A7.287,7.287,0,0,1,8.623,1.38H224.2m0-1.38H8.623A8.648,8.648,0,0,0,0,8.623V60.362a8.539,8.539,0,0,0,8.623,8.623H224.2a8.539,8.539,0,0,0,8.623-8.623V8.623A8.648,8.648,0,0,0,224.2,0Z" fill="none"/><path d="M87.665,25.206a7.256,7.256,0,0,0-7.416,7.416,7.361,7.361,0,0,0,7.416,7.416,7.256,7.256,0,0,0,7.416-7.416A7.155,7.155,0,0,0,87.665,25.206Zm0,11.727a4.281,4.281,0,0,1-4.139-4.484,4.281,4.281,0,0,1,4.139-4.484A4.178,4.178,0,0,1,91.8,32.449,4.281,4.281,0,0,1,87.665,36.933ZM71.626,25.206a7.256,7.256,0,0,0-7.416,7.416,7.361,7.361,0,0,0,7.416,7.416,7.256,7.256,0,0,0,7.416-7.416A7.155,7.155,0,0,0,71.626,25.206Zm0,11.727a4.281,4.281,0,0,1-4.139-4.484,4.281,4.281,0,0,1,4.139-4.484,4.178,4.178,0,0,1,4.139,4.484A4.281,4.281,0,0,1,71.626,36.933ZM52.482,27.448v3.1H59.9a6.521,6.521,0,0,1-1.725,3.967,7.633,7.633,0,0,1-5.691,2.242,8.029,8.029,0,0,1-8.106-8.278A8.135,8.135,0,0,1,52.482,20.2a8.551,8.551,0,0,1,5.691,2.242L60.416,20.2a11.051,11.051,0,0,0-7.761-3.1A11.634,11.634,0,0,0,41.1,28.482,11.634,11.634,0,0,0,52.655,39.865a9.925,9.925,0,0,0,7.933-3.277,10.382,10.382,0,0,0,2.759-7.243,6.467,6.467,0,0,0-.172-1.9Zm78.3,2.414c-.69-1.725-2.414-4.656-6.209-4.656s-6.9,2.932-6.9,7.416a7.217,7.217,0,0,0,7.243,7.416,7.075,7.075,0,0,0,6.036-3.277l-2.414-1.725a4.2,4.2,0,0,1-3.622,2.07,3.742,3.742,0,0,1-3.622-2.242l9.83-4.139-.345-.862Zm-10,2.414a4.19,4.19,0,0,1,3.794-4.312,3.051,3.051,0,0,1,2.759,1.552l-6.554,2.759Zm-8.106,7.071h3.277V17.79h-3.277ZM107.5,26.758a5.678,5.678,0,0,0-3.967-1.725,7.41,7.41,0,0,0-7.071,7.416,7.141,7.141,0,0,0,7.071,7.243,4.952,4.952,0,0,0,3.794-1.725h.172V39c0,2.759-1.552,4.312-3.967,4.312a3.832,3.832,0,0,1-3.622-2.587L97.15,41.934a7.115,7.115,0,0,0,6.554,4.312c3.794,0,6.9-2.242,6.9-7.588V25.551h-3.1v1.207ZM103.7,36.933a4.281,4.281,0,0,1-4.139-4.484,4.281,4.281,0,0,1,4.139-4.484c2.242,0,3.967,1.9,3.967,4.484S105.946,36.933,103.7,36.933ZM145.784,17.79h-7.761V39.348H141.3V31.242h4.484a6.734,6.734,0,1,0,0-13.452Zm.172,10.348H141.3V20.722h4.656a3.788,3.788,0,0,1,3.794,3.622,3.947,3.947,0,0,1-3.794,3.794Zm19.833-3.1c-2.414,0-4.829,1.035-5.691,3.277l2.932,1.207a3.046,3.046,0,0,1,2.932-1.552,3.241,3.241,0,0,1,3.449,2.759V30.9a6.841,6.841,0,0,0-3.277-.862c-3.1,0-6.209,1.725-6.209,4.829,0,2.932,2.587,4.829,5.346,4.829a4.853,4.853,0,0,0,4.139-2.07h.172v1.725h3.1V31.069C172.343,27.275,169.411,25.033,165.79,25.033Zm-.345,11.9c-1.035,0-2.587-.517-2.587-1.9,0-1.725,1.9-2.242,3.449-2.242a6.669,6.669,0,0,1,2.932.69A4.017,4.017,0,0,1,165.445,36.933Zm18.108-11.382-3.622,9.313h-.172l-3.794-9.313h-3.449l5.691,13.107L174.93,45.9h3.277l8.8-20.35h-3.449Zm-28.974,13.8h3.277V17.79H154.58Z" transform="translate(29.782 12.391)"/><g transform="translate(4.265 4.763)"><path d="M10.542,7.5A2.648,2.648,0,0,0,10,9.4V39.332a2.68,2.68,0,0,0,.677,1.9l.135.135,16.8-16.8V24.3Z" transform="translate(7.246 5.304)" fill="url(#b)"/><path d="M28.454,27.314,22.9,21.76v-.406L28.454,15.8l.135.135,6.637,3.793c1.9,1.084,1.9,2.845,0,3.928Z" transform="translate(11.82 8.247)" fill="url(#c)"/><path d="M33.021,25.689,27.332,20,10.4,36.932c.677.677,1.625.677,2.845.135L33.021,25.689" transform="translate(7.388 9.736)" fill="url(#d)"/><path d="M33.021,18.859,13.245,7.617a2.2,2.2,0,0,0-2.845.135l16.932,16.8,5.689-5.689Z" transform="translate(7.388 5.188)" fill="url(#e)"/><path d="M32.885,24.1,13.245,35.207a2.215,2.215,0,0,1-2.709,0l-.135.135.135.135a2.215,2.215,0,0,0,2.709,0Z" transform="translate(7.388 11.189)" opacity="0.2"/><path d="M10.542,36.661a2.648,2.648,0,0,1-.542-1.9V34.9a2.68,2.68,0,0,0,.677,1.9v-.135ZM39.8,21.761l-6.773,3.793.135.135L39.8,21.9A2.252,2.252,0,0,0,41.154,20C41.154,20.677,40.613,21.219,39.8,21.761Z" transform="translate(7.246 9.736)" opacity="0.12"/><path d="M13.386,7.761,39.8,22.8c.813.542,1.355,1.084,1.355,1.761a2.252,2.252,0,0,0-1.355-1.9L13.386,7.625C11.49,6.541,10,7.354,10,9.521v.135C10,7.625,11.49,6.677,13.386,7.761Z" transform="translate(7.246 5.179)" fill="#fff" opacity="0.25"/></g><path d="M3.9-4.224A3.6,3.6,0,0,0,.222-.551,3.591,3.591,0,0,0,3.9,3.123,3.546,3.546,0,0,0,7.455.039V-.882H3.492V.06h2.7a2.177,2.177,0,0,1-2.3,2A2.415,2.415,0,0,1,1.433-.551,2.406,2.406,0,0,1,3.9-3.148,2.044,2.044,0,0,1,5.82-2.061H7.238A3.428,3.428,0,0,0,3.9-4.224Zm8.709.083H8.631v7.2H12.6V2.1H9.81v-2.2h2.483v-.962H9.81V-3.179H12.6Zm1.093.973h1.925V3.061H16.8V-3.169h1.914v-.962H13.7ZM22.63,3.061h1.18V-4.131H22.63Zm2.376-6.229H26.93V3.061h1.18V-3.169h1.914v-.962H25.006ZM40.892-.551a3.585,3.585,0,0,0-3.673-3.673A3.6,3.6,0,0,0,33.545-.551a3.6,3.6,0,0,0,3.673,3.684A3.588,3.588,0,0,0,40.892-.551Zm-6.136,0a2.418,2.418,0,0,1,2.463-2.639A2.418,2.418,0,0,1,39.681-.551a2.436,2.436,0,0,1-2.463,2.659A2.436,2.436,0,0,1,34.756-.551ZM46.8-4.141v5.36l-3.549-5.36h-1.18v7.2h1.18V-2.31L46.8,3.061h1.18v-7.2Z" transform="translate(70.87 17.635)"/></svg>