<svg xmlns="http://www.w3.org/2000/svg" xmlns:xlink="http://www.w3.org/1999/xlink" width="243" height="72" viewBox="0 0 243 72"><defs><linearGradient id="a" x1="0.908" y1="1.032" x2="-0.383" y2="0.36" gradientUnits="objectBoundingBox"><stop offset="0" stop-color="#00a0ff"/><stop offset="0.007" stop-color="#00a1ff"/><stop offset="0.26" stop-color="#00beff"/><stop offset="0.512" stop-color="#00d2ff"/><stop offset="0.76" stop-color="#00dfff"/><stop offset="1" stop-color="#00e3ff"/></linearGradient><linearGradient id="b" x1="1.077" y1="0.729" x2="-1.307" y2="0.729" gradientUnits="objectBoundingBox"><stop offset="0" stop-color="#ffe000"/><stop offset="0.409" stop-color="#ffbd00"/><stop offset="0.775" stop-color="orange"/><stop offset="1" stop-color="#ff9c00"/></linearGradient><linearGradient id="c" x1="0.864" y1="-0.023" x2="-0.499" y2="-1.789" gradientUnits="objectBoundingBox"><stop offset="0" stop-color="#ff3a44"/><stop offset="1" stop-color="#c31162"/></linearGradient><linearGradient id="d" x1="-0.186" y1="2.701" x2="0.423" y2="1.909" gradientUnits="objectBoundingBox"><stop offset="0" stop-color="#32a071"/><stop offset="0.069" stop-color="#2da771"/><stop offset="0.476" stop-color="#15cf74"/><stop offset="0.801" stop-color="#06e775"/><stop offset="1" stop-color="#00f076"/></linearGradient></defs><rect width="243" height="72" fill="#1f3c88"/><path d="M234,1.44A7.606,7.606,0,0,1,241.56,9V63A7.606,7.606,0,0,1,234,70.56H9A7.606,7.606,0,0,1,1.44,63V9A7.606,7.606,0,0,1,9,1.44H234M234,0H9A9.026,9.026,0,0,0,0,9V63a8.913,8.913,0,0,0,9,9H234a8.913,8.913,0,0,0,9-9V9A9.026,9.026,0,0,0,234,0Z" fill="none"/><path d="M89.7,25.56a7.573,7.573,0,0,0-7.74,7.74,7.683,7.683,0,0,0,7.74,7.74,7.573,7.573,0,0,0,7.74-7.74A7.468,7.468,0,0,0,89.7,25.56Zm0,12.24a4.468,4.468,0,0,1-4.32-4.68,4.468,4.468,0,0,1,4.32-4.68,4.36,4.36,0,0,1,4.32,4.68A4.468,4.468,0,0,1,89.7,37.8ZM72.96,25.56a7.573,7.573,0,0,0-7.74,7.74,7.683,7.683,0,0,0,7.74,7.74A7.573,7.573,0,0,0,80.7,33.3,7.468,7.468,0,0,0,72.96,25.56Zm0,12.24a4.468,4.468,0,0,1-4.32-4.68,4.468,4.468,0,0,1,4.32-4.68,4.36,4.36,0,0,1,4.32,4.68A4.468,4.468,0,0,1,72.96,37.8ZM52.98,27.9v3.24h7.74a6.806,6.806,0,0,1-1.8,4.14,7.967,7.967,0,0,1-5.94,2.34,8.38,8.38,0,0,1-8.46-8.64,8.491,8.491,0,0,1,8.46-8.64,8.925,8.925,0,0,1,5.94,2.34l2.34-2.34a11.534,11.534,0,0,0-8.1-3.24A12.142,12.142,0,0,0,41.1,28.98,12.142,12.142,0,0,0,53.16,40.86a10.359,10.359,0,0,0,8.28-3.42,10.836,10.836,0,0,0,2.88-7.56,6.749,6.749,0,0,0-.18-1.98Zm81.72,2.52c-.72-1.8-2.52-4.86-6.48-4.86s-7.2,3.06-7.2,7.74a7.533,7.533,0,0,0,7.56,7.74,7.384,7.384,0,0,0,6.3-3.42l-2.52-1.8a4.387,4.387,0,0,1-3.78,2.16,3.905,3.905,0,0,1-3.78-2.34l10.26-4.32-.36-.9Zm-10.44,2.52a4.373,4.373,0,0,1,3.96-4.5,3.184,3.184,0,0,1,2.88,1.62l-6.84,2.88Zm-8.46,7.38h3.42V17.82H115.8Zm-5.4-13.14a5.927,5.927,0,0,0-4.14-1.8,7.734,7.734,0,0,0-7.38,7.74,7.453,7.453,0,0,0,7.38,7.56,5.168,5.168,0,0,0,3.96-1.8h.18v1.08c0,2.88-1.62,4.5-4.14,4.5a4,4,0,0,1-3.78-2.7L99.6,43.02a7.426,7.426,0,0,0,6.84,4.5c3.96,0,7.2-2.34,7.2-7.92V25.92H110.4v1.26ZM106.44,37.8a4.468,4.468,0,0,1-4.32-4.68,4.468,4.468,0,0,1,4.32-4.68c2.34,0,4.14,1.98,4.14,4.68S108.78,37.8,106.44,37.8Zm43.92-19.98h-8.1v22.5h3.42V31.86h4.68a7.029,7.029,0,1,0,0-14.04Zm.18,10.8h-4.86V20.88h4.86a3.954,3.954,0,0,1,3.96,3.78,4.119,4.119,0,0,1-3.96,3.96Zm20.7-3.24c-2.52,0-5.04,1.08-5.94,3.42l3.06,1.26a3.18,3.18,0,0,1,3.06-1.62,3.383,3.383,0,0,1,3.6,2.88v.18a7.14,7.14,0,0,0-3.42-.9c-3.24,0-6.48,1.8-6.48,5.04,0,3.06,2.7,5.04,5.58,5.04a5.065,5.065,0,0,0,4.32-2.16h.18v1.8h3.24V31.68C178.08,27.72,175.02,25.38,171.24,25.38Zm-.36,12.42c-1.08,0-2.7-.54-2.7-1.98,0-1.8,1.98-2.34,3.6-2.34a6.961,6.961,0,0,1,3.06.72A4.192,4.192,0,0,1,170.88,37.8Zm18.9-11.88L186,35.64h-.18l-3.96-9.72h-3.6L184.2,39.6l-3.42,7.56h3.42l9.18-21.24h-3.6Zm-30.24,14.4h3.42V17.82h-3.42Z" transform="translate(32.88 13.68)" fill="#fefefe"/><path d="M10.72,7.5A3.519,3.519,0,0,0,10,10.02V49.8a3.561,3.561,0,0,0,.9,2.52l.18.18L33.4,30.18v-.36Z" transform="translate(8 6)" fill="url(#a)"/><path d="M30.28,31.1,22.9,23.72v-.54l7.38-7.38.18.18,8.82,5.04c2.52,1.44,2.52,3.78,0,5.22Z" transform="translate(18.32 12.64)" fill="url(#b)"/><path d="M40.46,27.56,32.9,20,10.4,42.5c.9.9,2.16.9,3.78.18L40.46,27.56" transform="translate(8.32 16)" fill="url(#c)"/><path d="M40.46,22.7,14.18,7.763c-1.62-.9-2.88-.72-3.78.18l22.5,22.32,7.56-7.56Z" transform="translate(8.32 5.737)" fill="url(#d)"/><path d="M40.28,24.1,14.18,38.86a2.944,2.944,0,0,1-3.6,0l-.18.18.18.18a2.944,2.944,0,0,0,3.6,0Z" transform="translate(8.32 19.28)" opacity="0.2"/><path d="M10.72,42.14A3.519,3.519,0,0,1,10,39.62v.18a3.561,3.561,0,0,0,.9,2.52v-.18h-.18ZM49.6,22.34l-9,5.04.18.18,8.82-5.04A2.992,2.992,0,0,0,51.4,20C51.4,20.9,50.68,21.62,49.6,22.34Z" transform="translate(8 16)" opacity="0.12"/><path d="M14.5,7.962l35.1,19.98c1.08.72,1.8,1.44,1.8,2.34a2.992,2.992,0,0,0-1.8-2.52L14.5,7.782c-2.52-1.44-4.5-.36-4.5,2.52v.18C10,7.782,11.98,6.522,14.5,7.962Z" transform="translate(8 5.718)" fill="#fff" opacity="0.25"/><path d="M4.056-4.224A3.754,3.754,0,0,0,.222-.39,3.748,3.748,0,0,0,4.056,3.444,3.7,3.7,0,0,0,7.771.226V-.736H3.635V.247H6.454a2.273,2.273,0,0,1-2.4,2.084A2.52,2.52,0,0,1,1.486-.39,2.511,2.511,0,0,1,4.056-3.1,2.134,2.134,0,0,1,6.065-1.967h1.48A3.578,3.578,0,0,0,4.056-4.224Zm9.089.086H9V3.379h4.147v-1H10.229V.074h2.592v-1H10.229v-2.2h2.916Zm1.141,1.015h2.009v6.5h1.231v-6.5h2v-1H14.286Zm9.323,6.5H24.84V-4.127H23.609Zm2.48-6.5H28.1v6.5h1.231v-6.5h2v-1H26.089ZM42.67-.39a3.742,3.742,0,0,0-3.834-3.834A3.754,3.754,0,0,0,35-.39a3.757,3.757,0,0,0,3.834,3.845A3.744,3.744,0,0,0,42.67-.39Zm-6.4,0a2.524,2.524,0,0,1,2.57-2.754A2.524,2.524,0,0,1,41.406-.39a2.542,2.542,0,0,1-2.57,2.776A2.542,2.542,0,0,1,36.265-.39ZM48.832-4.138V1.457l-3.7-5.594H43.9V3.379h1.231V-2.226l3.7,5.605h1.231V-4.138Z" transform="translate(73.978 18.221)" fill="#fff"/></svg>