<svg xmlns="http://www.w3.org/2000/svg" xmlns:xlink="http://www.w3.org/1999/xlink" width="232.823" height="68.988" viewBox="0 0 232.823 68.988"><defs><linearGradient id="a" x1="-0.087" x2="0.878" y2="0.845" gradientUnits="objectBoundingBox"><stop offset="0" stop-color="#e39b1b"/><stop offset="1" stop-color="#8b6115"/></linearGradient></defs><path d="M214.283,0H18.551c-.713,0-1.418,0-2.13,0-.6,0-1.187.013-1.788.022a28.925,28.925,0,0,0-3.9.3,14.156,14.156,0,0,0-3.7,1.081A12.579,12.579,0,0,0,3.887,3.444a10.955,10.955,0,0,0-2.292,2.8A10.508,10.508,0,0,0,.378,9.522a19.935,19.935,0,0,0-.349,3.453C.011,13.5.01,14.034,0,14.563V54.426c.01.535.011,1.054.029,1.59a19.934,19.934,0,0,0,.349,3.452,10.486,10.486,0,0,0,1.216,3.284,10.874,10.874,0,0,0,2.292,2.784A12.259,12.259,0,0,0,7.036,67.57a14.227,14.227,0,0,0,3.7,1.088,29.449,29.449,0,0,0,3.9.3c.6.012,1.192.018,1.788.018.712,0,1.417,0,2.13,0H214.283c.7,0,1.41,0,2.109,0,.593,0,1.2-.007,1.794-.018a29.064,29.064,0,0,0,3.891-.3,14.449,14.449,0,0,0,3.713-1.088,12.264,12.264,0,0,0,3.146-2.033,11.208,11.208,0,0,0,2.3-2.784,10.506,10.506,0,0,0,1.2-3.284,20.724,20.724,0,0,0,.361-3.452c.008-.536.008-1.054.008-1.59.015-.627.015-1.25.015-1.886V16.446c0-.632,0-1.258-.015-1.883,0-.529,0-1.059-.008-1.588a20.721,20.721,0,0,0-.361-3.453,10.527,10.527,0,0,0-1.2-3.282,11.965,11.965,0,0,0-5.445-4.829A14.378,14.378,0,0,0,222.077.33a28.55,28.55,0,0,0-3.891-.3c-.593-.008-1.2-.019-1.794-.022-.7,0-1.41,0-2.109,0Z" transform="translate(0 0)" fill="none"/><rect width="229.812" height="68.988" transform="translate(1.506 0)" fill="url(#a)"/><rect width="9.444" height="68.988" rx="4.722" transform="translate(1.506 0)" fill="#1f3c88" opacity="0"/><g transform="translate(16.572 13.533)"><g transform="translate(6)"><path d="M36.147,24.657a8.875,8.875,0,0,1,4.226-7.446,9.085,9.085,0,0,0-7.158-3.87c-3.012-.316-5.931,1.8-7.466,1.8-1.564,0-3.927-1.771-6.472-1.718a9.533,9.533,0,0,0-8.022,4.892C7.788,24.322,10.375,33.148,13.7,38c1.662,2.377,3.605,5.032,6.147,4.938,2.488-.1,3.417-1.586,6.419-1.586,2.975,0,3.846,1.586,6.44,1.526,2.669-.043,4.351-2.387,5.955-4.787a19.659,19.659,0,0,0,2.723-5.546,8.576,8.576,0,0,1-5.235-7.89Z" transform="translate(-9.609 -3.889)"/><path d="M24.6,14.107a8.738,8.738,0,0,0,2-6.26,8.891,8.891,0,0,0-5.753,2.976A8.315,8.315,0,0,0,18.8,16.852,7.351,7.351,0,0,0,24.6,14.107Z" transform="translate(-2.964 -7.847)"/></g><g transform="translate(59.599 17.288)"><path d="M48.008,33.706H39.845l-1.96,5.789H34.427l7.732-21.416h3.592l7.732,21.416H49.967ZM40.69,31.035h6.471l-3.19-9.394h-.089Z" transform="translate(-34.427 -17.721)"/><path d="M61.339,29.32c0,4.852-2.6,7.97-6.516,7.97a5.293,5.293,0,0,1-4.913-2.732h-.074v7.734H46.631V21.512h3.1v2.6h.059a5.539,5.539,0,0,1,4.972-2.76C58.727,21.349,61.339,24.482,61.339,29.32Zm-3.294,0c0-3.161-1.634-5.24-4.126-5.24-2.449,0-4.1,2.122-4.1,5.24,0,3.146,1.647,5.253,4.1,5.253,2.493,0,4.126-2.063,4.126-5.253Z" transform="translate(-25.584 -15.353)"/><path d="M71.3,29.32c0,4.852-2.6,7.97-6.517,7.97a5.293,5.293,0,0,1-4.913-2.732H59.8v7.734H56.6V21.512h3.1v2.6h.059a5.539,5.539,0,0,1,4.972-2.76C68.692,21.349,71.3,24.482,71.3,29.32Zm-3.3,0c0-3.161-1.634-5.24-4.126-5.24-2.449,0-4.1,2.122-4.1,5.24,0,3.146,1.647,5.253,4.1,5.253,2.493,0,4.126-2.063,4.126-5.253Z" transform="translate(-18.363 -15.353)"/><path d="M73.088,33.677c.237,2.124,2.3,3.518,5.12,3.518,2.7,0,4.645-1.395,4.645-3.309,0-1.662-1.172-2.658-3.948-3.34l-2.776-.669c-3.933-.95-5.758-2.789-5.758-5.773,0-3.7,3.22-6.233,7.791-6.233,4.527,0,7.629,2.538,7.734,6.233H82.661c-.194-2.137-1.96-3.427-4.542-3.427s-4.349,1.305-4.349,3.205c0,1.514,1.128,2.405,3.889,3.087l2.36.579c4.394,1.039,6.218,2.8,6.218,5.937,0,4.007-3.19,6.516-8.266,6.516-4.749,0-7.956-2.45-8.163-6.324Z" transform="translate(-8.79 -17.871)"/><path d="M85.653,19.3v3.7h2.969v2.538H85.653v8.608c0,1.337.595,1.96,1.9,1.96a10.016,10.016,0,0,0,1.054-.074V38.55a8.8,8.8,0,0,1-1.78.148c-3.161,0-4.394-1.187-4.394-4.216v-8.95h-2.27V22.995h2.27V19.3Z" transform="translate(-1.286 -16.836)"/><path d="M86.064,29.331c0-4.913,2.893-8,7.405-8,4.527,0,7.407,3.087,7.407,8s-2.865,8-7.407,8S86.064,34.257,86.064,29.331Zm11.547,0c0-3.37-1.544-5.359-4.141-5.359s-4.141,2-4.141,5.359c0,3.384,1.544,5.357,4.141,5.357s4.141-1.974,4.141-5.357Z" transform="translate(2.99 -15.364)"/><path d="M96.185,21.512h3.057V24.17h.074a3.724,3.724,0,0,1,3.756-2.821,4.943,4.943,0,0,1,1.1.12v3a4.481,4.481,0,0,0-1.44-.194,3.23,3.23,0,0,0-3.34,3.592v9.261H96.185Z" transform="translate(10.324 -15.353)"/><path d="M115.3,32.551c-.431,2.834-3.192,4.78-6.723,4.78-4.542,0-7.362-3.043-7.362-7.926,0-4.9,2.834-8.074,7.227-8.074,4.32,0,7.037,2.968,7.037,7.7v1.1H104.451v.194a4.067,4.067,0,0,0,4.2,4.423,3.533,3.533,0,0,0,3.606-2.2Zm-10.834-4.66h7.806a3.755,3.755,0,0,0-3.83-3.963,3.953,3.953,0,0,0-3.976,3.963Z" transform="translate(13.969 -15.364)"/></g></g><g transform="translate(79.045 14.551)"><path d="M39.388,8.736a4.552,4.552,0,0,1,4.842,5.113c0,3.288-1.777,5.177-4.842,5.177H35.671V8.736Zm-2.119,8.835h1.94a3.235,3.235,0,0,0,3.394-3.7,3.244,3.244,0,0,0-3.394-3.68h-1.94Z" transform="translate(-35.671 -8.229)" fill="#1d1d1d"/><path d="M41.688,14.137a3.679,3.679,0,1,1,7.325,0,3.68,3.68,0,1,1-7.325,0Zm5.748,0c0-1.683-.756-2.668-2.083-2.668s-2.082.984-2.082,2.668.749,2.674,2.082,2.674S47.436,15.827,47.436,14.137Z" transform="translate(-31.323 -7.226)" fill="#1d1d1d"/><path d="M55.2,17.961h-1.59L52,12.241h-.121l-1.6,5.72H48.71l-2.141-7.766h1.555l1.391,5.926h.115l1.6-5.926H52.7l1.6,5.926h.121L55.8,10.195h1.533Z" transform="translate(-27.774 -7.163)" fill="#1d1d1d"/><path d="M53.854,10.261h1.475v1.234h.115a2.325,2.325,0,0,1,2.317-1.384A2.526,2.526,0,0,1,60.449,13v5.027H58.916V13.384c0-1.248-.542-1.869-1.676-1.869a1.781,1.781,0,0,0-1.854,1.968v4.543H53.854Z" transform="translate(-22.496 -7.229)" fill="#1d1d1d"/><path d="M59.094,8.437h1.533v10.8H59.094Z" transform="translate(-18.698 -8.437)" fill="#1d1d1d"/><path d="M61.225,14.137a3.679,3.679,0,1,1,7.325,0,3.68,3.68,0,1,1-7.325,0Zm5.748,0c0-1.683-.756-2.668-2.083-2.668s-2.082.984-2.082,2.668.749,2.674,2.082,2.674S66.973,15.827,66.973,14.137Z" transform="translate(-17.167 -7.226)" fill="#1d1d1d"/><path d="M66.4,15.827c0-1.4,1.041-2.2,2.888-2.318l2.1-.121v-.67c0-.82-.542-1.283-1.59-1.283-.856,0-1.448.314-1.619.863H66.7c.157-1.334,1.411-2.189,3.173-2.189,1.947,0,3.045.969,3.045,2.61v5.306H71.443V16.932h-.121a2.613,2.613,0,0,1-2.333,1.219A2.346,2.346,0,0,1,66.4,15.827Zm4.992-.664v-.649l-1.9.121c-1.069.072-1.555.435-1.555,1.12s.606,1.106,1.44,1.106a1.831,1.831,0,0,0,2.011-1.7Z" transform="translate(-13.404 -7.226)" fill="#1d1d1d"/><path d="M71.348,15.348c0-2.454,1.261-4.008,3.224-4.008A2.559,2.559,0,0,1,76.953,12.7h.115V8.437H78.6v10.8H77.132V18.007H77.01a2.7,2.7,0,0,1-2.439,1.355C72.6,19.362,71.348,17.808,71.348,15.348Zm1.583,0c0,1.647.776,2.638,2.075,2.638s2.09-1.005,2.09-2.632-.807-2.638-2.09-2.638-2.075,1-2.075,2.632Z" transform="translate(-9.819 -8.437)" fill="#1d1d1d"/><path d="M79.237,14.137a3.679,3.679,0,1,1,7.325,0,3.68,3.68,0,1,1-7.325,0Zm5.748,0c0-1.683-.756-2.668-2.083-2.668s-2.082.984-2.082,2.668.749,2.674,2.082,2.674S84.985,15.827,84.985,14.137Z" transform="translate(-4.115 -7.226)" fill="#1d1d1d"/><path d="M84.669,10.261h1.475v1.234h.115a2.325,2.325,0,0,1,2.317-1.384A2.526,2.526,0,0,1,91.265,13v5.027H89.732V13.384c0-1.248-.542-1.869-1.676-1.869A1.781,1.781,0,0,0,86.2,13.484v4.543H84.669Z" transform="translate(-0.166 -7.229)" fill="#1d1d1d"/><path d="M94.678,9.074v1.969H96.36v1.291H94.678v3.993c0,.813.335,1.17,1.1,1.17a5.115,5.115,0,0,0,.584-.035v1.277a5.028,5.028,0,0,1-.834.078c-1.7,0-2.383-.6-2.383-2.1V12.333H91.911V11.042h1.233V9.074Z" transform="translate(5.081 -7.976)" fill="#1d1d1d"/><path d="M95.7,8.437h1.519v4.28h.121a2.39,2.39,0,0,1,2.368-1.391,2.558,2.558,0,0,1,2.675,2.9v5.014h-1.534V14.6c0-1.24-.578-1.869-1.661-1.869A1.814,1.814,0,0,0,97.237,14.7v4.536H95.7Z" transform="translate(7.83 -8.437)" fill="#1d1d1d"/><path d="M107.7,15.927a3.153,3.153,0,0,1-3.365,2.247,3.527,3.527,0,0,1-3.587-4.008,3.582,3.582,0,0,1,3.581-4.057c2.161,0,3.464,1.476,3.464,3.915v.535h-5.484v.086a2.053,2.053,0,0,0,2.068,2.225,1.861,1.861,0,0,0,1.848-.941Zm-5.391-2.5h3.922a1.874,1.874,0,0,0-1.912-2.012,1.986,1.986,0,0,0-2.011,2.012Z" transform="translate(11.458 -7.226)" fill="#1d1d1d"/></g></svg>