<svg xmlns="http://www.w3.org/2000/svg" width="243" height="72.004" viewBox="0 0 243 72.004"><path d="M223.649,0H19.362c-.745,0-1.48,0-2.223,0-.622,0-1.238.014-1.866.023A30.19,30.19,0,0,0,11.2.345a14.775,14.775,0,0,0-3.86,1.129A13.129,13.129,0,0,0,4.056,3.595,11.434,11.434,0,0,0,1.664,6.513,10.967,10.967,0,0,0,.395,9.939a20.807,20.807,0,0,0-.364,3.6C.012,14.094.01,14.648,0,15.2V56.805c.01.559.012,1.1.031,1.659a20.8,20.8,0,0,0,.364,3.6A10.944,10.944,0,0,0,1.664,65.5,11.349,11.349,0,0,0,4.056,68.4a12.8,12.8,0,0,0,3.287,2.122,14.849,14.849,0,0,0,3.86,1.135,30.738,30.738,0,0,0,4.069.318c.628.012,1.244.019,1.866.019.743,0,1.478,0,2.223,0H223.649c.73,0,1.471,0,2.2,0,.619,0,1.253-.007,1.872-.019a30.335,30.335,0,0,0,4.061-.318,15.082,15.082,0,0,0,3.875-1.135,12.8,12.8,0,0,0,3.284-2.122,11.7,11.7,0,0,0,2.4-2.906,10.965,10.965,0,0,0,1.257-3.428,21.634,21.634,0,0,0,.377-3.6c.008-.559.008-1.1.008-1.659.016-.654.016-1.3.016-1.969V17.165c0-.659,0-1.313-.016-1.965,0-.552,0-1.106-.008-1.658a21.629,21.629,0,0,0-.377-3.6,10.988,10.988,0,0,0-1.257-3.426,12.488,12.488,0,0,0-5.683-5.04A15.006,15.006,0,0,0,231.784.344a29.8,29.8,0,0,0-4.061-.318C227.1.018,226.469.007,225.85,0c-.73,0-1.471,0-2.2,0Z" transform="translate(0 0)" fill="none"/><rect width="239.857" height="72.004" rx="10" transform="translate(1.571 0)" fill="#fff"/><rect width="239.857" height="72.004" rx="10" transform="translate(1.571 0)" fill="#1f3c88"/><g transform="translate(17.296 14.125)"><path d="M37.307,25.153a9.263,9.263,0,0,1,4.411-7.772,9.482,9.482,0,0,0-7.471-4.039c-3.143-.33-6.19,1.881-7.792,1.881-1.633,0-4.1-1.848-6.754-1.793a9.949,9.949,0,0,0-8.372,5.106c-3.62,6.268-.92,15.479,2.548,20.545,1.735,2.481,3.763,5.252,6.416,5.154,2.6-.108,3.566-1.656,6.7-1.656,3.1,0,4.015,1.656,6.722,1.593,2.786-.045,4.541-2.492,6.215-5a20.519,20.519,0,0,0,2.842-5.789,8.951,8.951,0,0,1-5.464-8.234Z" transform="translate(-9.609 -3.477)" fill="#fff"/><path d="M24.857,14.381a9.12,9.12,0,0,0,2.086-6.534,9.279,9.279,0,0,0-6,3.106A8.678,8.678,0,0,0,18.8,17.245,7.673,7.673,0,0,0,24.857,14.381Z" transform="translate(-2.272 -7.847)" fill="#fff"/><g transform="translate(62.204 18.043)"><path d="M48.6,34.389h-8.52L38.036,40.43H34.427L42.5,18.078h3.749l8.07,22.352h-3.67ZM40.964,31.6h6.754L44.388,21.8H44.3Z" transform="translate(-34.427 -17.705)" fill="#fff"/><path d="M61.982,29.669c0,5.064-2.711,8.318-6.8,8.318a5.525,5.525,0,0,1-5.128-2.851h-.077v8.072H46.631V21.52h3.238V24.23h.062a5.781,5.781,0,0,1,5.189-2.881C59.256,21.349,61.982,24.619,61.982,29.669Zm-3.438,0c0-3.3-1.705-5.469-4.307-5.469-2.556,0-4.275,2.215-4.275,5.469,0,3.284,1.719,5.483,4.275,5.483,2.6,0,4.307-2.153,4.307-5.483Z" transform="translate(-24.664 -15.091)" fill="#fff"/><path d="M71.948,29.669c0,5.064-2.711,8.318-6.8,8.318a5.525,5.525,0,0,1-5.128-2.851h-.077v8.072H56.6V21.52h3.238V24.23H59.9a5.781,5.781,0,0,1,5.189-2.881C69.22,21.349,71.948,24.619,71.948,29.669Zm-3.439,0c0-3.3-1.705-5.469-4.307-5.469-2.556,0-4.275,2.215-4.275,5.469,0,3.284,1.719,5.483,4.275,5.483,2.6,0,4.307-2.153,4.307-5.483Z" transform="translate(-16.692 -15.091)" fill="#fff"/><path d="M73.231,34.368c.248,2.217,2.4,3.672,5.344,3.672,2.82,0,4.848-1.455,4.848-3.454,0-1.735-1.223-2.774-4.12-3.486l-2.9-.7c-4.1-.991-6.01-2.911-6.01-6.026,0-3.857,3.361-6.506,8.132-6.506,4.725,0,7.963,2.649,8.072,6.506H83.223c-.2-2.231-2.046-3.577-4.741-3.577s-4.539,1.362-4.539,3.345c0,1.58,1.178,2.51,4.059,3.222l2.463.6c4.586,1.085,6.49,2.927,6.49,6.2,0,4.182-3.329,6.8-8.627,6.8-4.957,0-8.3-2.558-8.52-6.6Z" transform="translate(-6.123 -17.871)" fill="#fff"/><path d="M85.893,19.3v3.857h3.1v2.649h-3.1V34.79c0,1.4.62,2.046,1.983,2.046a10.452,10.452,0,0,0,1.1-.077v2.633a9.186,9.186,0,0,1-1.858.155c-3.3,0-4.586-1.239-4.586-4.4V25.806h-2.37V23.156h2.37V19.3Z" transform="translate(2.162 -16.728)" fill="#fff"/><path d="M86.064,29.681c0-5.128,3.02-8.35,7.729-8.35,4.725,0,7.731,3.222,7.731,8.35s-2.99,8.35-7.731,8.35S86.064,34.822,86.064,29.681Zm12.052,0c0-3.517-1.612-5.593-4.322-5.593s-4.322,2.092-4.322,5.593c0,3.531,1.612,5.592,4.322,5.592s4.322-2.06,4.322-5.592Z" transform="translate(6.883 -15.103)" fill="#fff"/><path d="M96.185,21.519h3.19v2.774h.077a3.887,3.887,0,0,1,3.92-2.944,5.159,5.159,0,0,1,1.146.125V24.6a4.676,4.676,0,0,0-1.5-.2A3.371,3.371,0,0,0,99.53,28.15v9.666H96.185Z" transform="translate(14.979 -15.091)" fill="#fff"/><path d="M115.917,33.042c-.45,2.958-3.331,4.989-7.017,4.989-4.741,0-7.683-3.176-7.683-8.272,0-5.112,2.958-8.427,7.543-8.427,4.509,0,7.344,3.1,7.344,8.038v1.146h-11.51v.2a4.244,4.244,0,0,0,4.384,4.616,3.687,3.687,0,0,0,3.763-2.292Zm-11.308-4.864h8.147a3.919,3.919,0,0,0-4-4.136,4.126,4.126,0,0,0-4.15,4.136Z" transform="translate(19.004 -15.103)" fill="#fff"/></g></g><g transform="translate(82.5 15.187)"><path d="M39.55,8.736A4.751,4.751,0,0,1,44.6,14.073c0,3.431-1.854,5.4-5.054,5.4h-3.88V8.736Zm-2.211,9.221h2.025A3.377,3.377,0,0,0,42.906,14.1a3.386,3.386,0,0,0-3.542-3.841H37.339Z" transform="translate(-35.671 -8.207)" fill="#fff"/><path d="M41.689,14.313a3.84,3.84,0,1,1,7.645,0,3.84,3.84,0,1,1-7.645,0Zm6,0c0-1.757-.789-2.784-2.174-2.784s-2.173,1.027-2.173,2.784.782,2.791,2.173,2.791S47.688,16.077,47.688,14.313Z" transform="translate(-30.871 -7.1)" fill="#fff"/><path d="M55.576,18.3H53.917l-1.675-5.97h-.127L50.447,18.3H48.8l-2.234-8.105h1.622l1.452,6.185h.12l1.666-6.185h1.535l1.666,6.185h.127L56.2,10.195h1.6Z" transform="translate(-26.952 -7.031)" fill="#fff"/><path d="M53.854,10.268h1.54v1.288h.12a2.426,2.426,0,0,1,2.419-1.444,2.636,2.636,0,0,1,2.805,3.015v5.247h-1.6V13.528c0-1.3-.566-1.95-1.749-1.95a1.859,1.859,0,0,0-1.935,2.054v4.742h-1.6Z" transform="translate(-21.125 -7.104)" fill="#fff"/><path d="M59.094,8.437h1.6V19.706h-1.6Z" transform="translate(-16.933 -8.437)" fill="#fff"/><path d="M61.226,14.313a3.84,3.84,0,1,1,7.646,0,3.841,3.841,0,1,1-7.646,0Zm6,0c0-1.757-.789-2.784-2.174-2.784s-2.173,1.027-2.173,2.784S63.66,17.1,65.051,17.1,67.225,16.077,67.225,14.313Z" transform="translate(-15.242 -7.1)" fill="#fff"/><path d="M66.4,16.077c0-1.459,1.086-2.3,3.015-2.42l2.2-.127v-.7c0-.856-.566-1.339-1.659-1.339-.893,0-1.512.328-1.689.9H66.714c.163-1.392,1.473-2.285,3.312-2.285,2.032,0,3.178,1.012,3.178,2.724V18.37h-1.54V17.231h-.127A2.727,2.727,0,0,1,69.1,18.5a2.448,2.448,0,0,1-2.7-2.426Zm5.21-.693v-.678l-1.979.127c-1.116.075-1.622.454-1.622,1.169s.633,1.154,1.5,1.154a1.911,1.911,0,0,0,2.1-1.772Z" transform="translate(-11.087 -7.1)" fill="#fff"/><path d="M71.348,15.65c0-2.561,1.317-4.184,3.364-4.184A2.671,2.671,0,0,1,77.2,12.889h.12V8.437h1.6V19.706H77.385V18.426h-.127a2.813,2.813,0,0,1-2.545,1.414C72.651,19.84,71.348,18.217,71.348,15.65Zm1.652,0c0,1.719.81,2.754,2.166,2.754s2.181-1.049,2.181-2.747S76.506,12.9,75.166,12.9,73,13.945,73,15.65Z" transform="translate(-7.129 -8.437)" fill="#fff"/><path d="M79.238,14.313a3.84,3.84,0,1,1,7.645,0,3.84,3.84,0,1,1-7.645,0Zm6,0c0-1.757-.789-2.784-2.174-2.784s-2.173,1.027-2.173,2.784.782,2.791,2.173,2.791S85.237,16.077,85.237,14.313Z" transform="translate(-0.832 -7.1)" fill="#fff"/><path d="M84.669,10.268h1.54v1.288h.12a2.426,2.426,0,0,1,2.419-1.444,2.636,2.636,0,0,1,2.805,3.015v5.247h-1.6V13.528c0-1.3-.566-1.95-1.749-1.95a1.859,1.859,0,0,0-1.935,2.054v4.742h-1.6Z" transform="translate(3.528 -7.104)" fill="#fff"/><path d="M94.8,9.074v2.055h1.756v1.347H94.8v4.168c0,.849.35,1.221,1.146,1.221a5.339,5.339,0,0,0,.61-.037V19.16a5.248,5.248,0,0,1-.87.082c-1.779,0-2.487-.626-2.487-2.188V12.476H91.911V11.129H93.2V9.074Z" transform="translate(9.321 -7.928)" fill="#fff"/><path d="M95.7,8.437H97.29V12.9h.127a2.494,2.494,0,0,1,2.471-1.452,2.67,2.67,0,0,1,2.791,3.022v5.233h-1.6V14.868c0-1.295-.6-1.95-1.733-1.95A1.893,1.893,0,0,0,97.3,14.973v4.734H95.7Z" transform="translate(12.356 -8.437)" fill="#fff"/><path d="M108,16.181a3.29,3.29,0,0,1-3.512,2.345,3.682,3.682,0,0,1-3.744-4.183,3.738,3.738,0,0,1,3.737-4.235c2.255,0,3.616,1.541,3.616,4.086v.558h-5.723v.09a2.142,2.142,0,0,0,2.159,2.322,1.943,1.943,0,0,0,1.928-.983Zm-5.627-2.612h4.094a1.956,1.956,0,0,0-2-2.1,2.073,2.073,0,0,0-2.1,2.1Z" transform="translate(16.361 -7.1)" fill="#fff"/></g></svg>