<svg xmlns="http://www.w3.org/2000/svg" width="31.672" height="34.325" viewBox="0 0 31.672 34.325"><g transform="translate(0 0)"><path d="M9.5,3.13" transform="translate(1.937 -1.453)" fill="#383838"/><path d="M32.455,5.1,27.176,3a7.27,7.27,0,0,0-2.639-.5h-.6v.173a3.183,3.183,0,0,1,.123.9,4.82,4.82,0,0,1-.633,2.394,5.272,5.272,0,0,1-3.361,2.463.435.435,0,0,0-.352.416V10.3a.88.88,0,0,1-1.76,0V8.848a.435.435,0,0,0-.352-.416,5.274,5.274,0,0,1-3.414-2.463,4.82,4.82,0,0,1-.633-2.394,3.183,3.183,0,0,1,.123-.9V2.5h-.528a7.378,7.378,0,0,0-2.6.486L5.217,5.1A3.47,3.47,0,0,0,3,8.31V32.419a.437.437,0,0,0,.44.434H6.414a.426.426,0,0,0,.31-.116.413.413,0,0,0,.13-.3l1.179-17.8h.246V31.118a3.551,3.551,0,0,1,2.27.78,1.885,1.885,0,0,0,2.481,0,3.719,3.719,0,0,1,4.557,0,1.885,1.885,0,0,0,2.481,0,3.719,3.719,0,0,1,4.557,0,1.774,1.774,0,0,0,1.249.468,1.863,1.863,0,0,0,1.249-.468,3.551,3.551,0,0,1,2.27-.78V14.641h.246l1.179,17.8a.413.413,0,0,0,.13.3.426.426,0,0,0,.31.116h2.974a.437.437,0,0,0,.44-.434V8.31A3.47,3.47,0,0,0,32.455,5.1ZM18.836,14.641a.867.867,0,1,1,.88-.867A.874.874,0,0,1,18.836,14.641Z" transform="translate(-3 -2.486)" fill="#fea621"/><path d="M15.293,9.107a5.279,5.279,0,0,1-3.563-1.32,4.751,4.751,0,0,1-1.716-3.642,2.639,2.639,0,0,1,0-.686,1.188,1.188,0,0,1,1.346-.95c.739,0,1.716.264,2.85.37h2.006c1.135,0,2.111-.37,2.85-.37a1.188,1.188,0,0,1,1.346.95,2.639,2.639,0,0,1,0,.686A4.751,4.751,0,0,1,18.7,7.787,5.279,5.279,0,0,1,15.293,9.107Z" transform="translate(0.577 -2.495)" fill="#939598"/><path d="M20.571,4.145a4.751,4.751,0,0,1-1.716,3.642,5.463,5.463,0,0,1-7.126,0,4.751,4.751,0,0,1-1.716-3.642,2.639,2.639,0,0,1,0-.686,1.188,1.188,0,0,1,1.346-.95c.739,0,1.716.264,2.85.37h2.006c1.135,0,2.111-.37,2.85-.37a1.188,1.188,0,0,1,1.346.95A2.639,2.639,0,0,1,20.571,4.145Z" transform="translate(0.548 -2.495)" fill="#ebebeb"/><path d="M21.836,19v5.939c0,.364-.148.66-.33.66H6.33c-.182,0-.33-.3-.33-.66V19a2.065,2.065,0,0,1,1.7,1.188c.53.945,1.33.945,1.861,0,1-1.582,2.416-1.582,3.418,0,.53.945,1.33.945,1.861,0,1-1.582,2.416-1.582,3.418,0,.253.475.59.731.937.713a1.147,1.147,0,0,0,.937-.713A2.065,2.065,0,0,1,21.836,19Z" transform="translate(1.918 8.727)" fill="#ebebeb"/></g></svg>