<svg xmlns="http://www.w3.org/2000/svg" width="25.942" height="34.477" viewBox="0 0 25.942 34.477"><path d="M11.379,7.309h0a4.758,4.758,0,0,0-1.569.259L8.5,2h.862Z" transform="translate(-1.588 -2)" fill="#fff"/><path d="M16.672,2,15.449,7.568a4.757,4.757,0,0,0-1.569-.259h0L15.811,2Z" transform="translate(2.306 -2)" fill="#fff"/><path d="M23.167,26.879a10.343,10.343,0,0,1-1.207-.689,13.2,13.2,0,0,1-1.517-1.051,15.876,15.876,0,0,1-2.482-2.448c-.19-.241-.4-.5-.569-.758a10.635,10.635,0,0,1-.621-.914c-.19-.31-.379-.621-.552-.948s-.276-.517-.4-.793-.207-.448-.293-.672-.155-.379-.224-.569a17.238,17.238,0,0,1-.758-2.844s0-.121,0-.19c0-.345-.1-.689-.121-1.034a8.394,8.394,0,0,1,0-1.138l.31-.121C16,17.192,22.323,18.381,23.167,26.879Z" transform="translate(2.689 5.751)" fill="#fff"/><path d="M15.248,16.994a14.411,14.411,0,0,1-.758-2.844,17.237,17.237,0,0,0,.758,2.844Z" transform="translate(2.748 6.794)" fill="#939598"/><path d="M13.309,12.831a8.4,8.4,0,0,1,0,1.138A3.038,3.038,0,0,1,13.189,15v.19a17.237,17.237,0,0,1-.758,2.844,1.567,1.567,0,0,1-.224.569c-.086.19-.19.448-.293.672s-.259.534-.4.793-.362.638-.552.948a10.636,10.636,0,0,1-.621.914c-.172.259-.379.517-.569.758a15.876,15.876,0,0,1-2.482,2.448A13.2,13.2,0,0,1,5.777,26.19a10.343,10.343,0,0,1-1.207.689c.741-8.5,7.067-9.687,8.429-14.169Z" transform="translate(-4.432 5.751)" fill="#fff"/><path d="M9.07,16.994a17.238,17.238,0,0,0,.758-2.844,14.411,14.411,0,0,1-.758,2.844Z" transform="translate(-1.175 6.794)" fill="#939598"/><path d="M22.352,7.252a.931.931,0,0,1,0,1,13.2,13.2,0,0,0-1.1,1.724A16.238,16.238,0,0,0,19.525,14.7c-.1.534-.19,1.017-.241,1.517a.431.431,0,0,1-.241.362,9.429,9.429,0,0,1-7.791,0,.448.448,0,0,1-.241-.362,7.331,7.331,0,0,0-.241-1.517A16.238,16.238,0,0,0,9.044,9.975a13.2,13.2,0,0,0-1.1-1.724.931.931,0,0,1,0-1,4.809,4.809,0,0,1,2.293-1.913A4.758,4.758,0,0,1,11.8,5.08h0a4.74,4.74,0,0,1,3.241,1.258A4.74,4.74,0,0,1,18.2,5.08h0a4.758,4.758,0,0,1,1.569.259A4.809,4.809,0,0,1,22.352,7.252Z" transform="translate(-2.098 0.229)" fill="#fea621"/><path d="M30.432,28.176a.431.431,0,0,1-.5.431A2.551,2.551,0,0,1,28.76,28a4.051,4.051,0,0,0-2.706-.914,4.137,4.137,0,0,0-2.655.931,2.534,2.534,0,0,1-3.361,0,4.085,4.085,0,0,0-2.6-.931,4.137,4.137,0,0,0-2.655.931,2.4,2.4,0,0,1-1.724.638,2.413,2.413,0,0,1-1.724-.638,4.051,4.051,0,0,0-2.517-.931,4.137,4.137,0,0,0-2.655.931,2.517,2.517,0,0,1-1.172.6.431.431,0,0,1-.5-.431V26.831A10.343,10.343,0,0,0,5.7,26.142,13.205,13.205,0,0,0,7.214,25.09,15.876,15.876,0,0,0,9.73,22.625c.19-.241.4-.5.569-.758a10.636,10.636,0,0,0,.621-.914,10.342,10.342,0,0,0,.552-.914c.138-.259.276-.517.4-.793s.207-.448.293-.672.155-.379.224-.569a14.41,14.41,0,0,0,.758-2.844v-.19c0-.345.1-.689.121-1.034a8.4,8.4,0,0,0,0-1.138,11.049,11.049,0,0,0,8.136,0,8.4,8.4,0,0,0,0,1.138,3.038,3.038,0,0,0,.121,1.034v.19a14.411,14.411,0,0,0,.758,2.844,1.567,1.567,0,0,0,.224.569c.086.19.19.448.293.672s.259.534.4.793a10.341,10.341,0,0,0,.552.948,10.635,10.635,0,0,0,.621.914c.172.259.379.517.569.758a15.875,15.875,0,0,0,2.482,2.448,13.2,13.2,0,0,0,1.517,1.051,10.343,10.343,0,0,0,1.207.689A2.638,2.638,0,0,1,30.432,28.176Z" transform="translate(-4.49 5.816)" fill="#fea621"/></svg>